<svg xmlns="http://www.w3.org/2000/svg" data-name="Layer 1" viewBox="0 0 32 40" x="0px" y="0px"><title>Artboard 15</title><path d="M18.344,16.75a1.6,1.6,0,0,0-1.594,1.594v10.3a1.6,1.6,0,0,0,1.594,1.594h10.3a1.6,1.6,0,0,0,1.594-1.594v-10.3a1.6,1.6,0,0,0-1.594-1.594h-10.3Zm3.413,2.262h3.477a.75.75,0,0,1,0,1.5H21.757a.75.75,0,0,1,0-1.5Z" fill="none"/><path d="M18.344,15.25h2.808a1.6,1.6,0,0,0,1.594-1.594V3.353a1.6,1.6,0,0,0-1.594-1.594h-10.3A1.6,1.6,0,0,0,9.254,3.353v10.3a1.6,1.6,0,0,0,1.594,1.594h7.5ZM14.262,4.021h3.476a.75.75,0,0,1,0,1.5H14.262a.75.75,0,0,1,0-1.5Z" fill="none"/><path d="M3.353,30.241h10.3a1.6,1.6,0,0,0,1.594-1.594v-10.3a1.6,1.6,0,0,0-1.594-1.594H3.353a1.6,1.6,0,0,0-1.594,1.594v10.3A1.6,1.6,0,0,0,3.353,30.241ZM6.766,19.012h3.477a.75.75,0,1,1,0,1.5H6.766a.75.75,0,1,1,0-1.5Z" fill="none"/><path d="M3.353,31.741h10.3A3.073,3.073,0,0,0,16,30.644a3.073,3.073,0,0,0,2.344,1.1h10.3a3.1,3.1,0,0,0,3.094-3.094v-10.3a3.1,3.1,0,0,0-3.094-3.094H23.79a3.056,3.056,0,0,0,.456-1.594V3.353A3.1,3.1,0,0,0,21.152.259h-10.3A3.1,3.1,0,0,0,7.754,3.353v10.3A3.056,3.056,0,0,0,8.21,15.25H3.353A3.1,3.1,0,0,0,.259,18.344v10.3A3.1,3.1,0,0,0,3.353,31.741Zm26.888-13.4v10.3a1.6,1.6,0,0,1-1.594,1.594h-10.3a1.6,1.6,0,0,1-1.594-1.594v-10.3a1.6,1.6,0,0,1,1.594-1.594h10.3A1.6,1.6,0,0,1,30.241,18.344ZM9.254,13.656V3.353a1.6,1.6,0,0,1,1.594-1.594h10.3a1.6,1.6,0,0,1,1.594,1.594v10.3a1.6,1.6,0,0,1-1.594,1.594h-10.3A1.6,1.6,0,0,1,9.254,13.656ZM1.759,18.344A1.6,1.6,0,0,1,3.353,16.75h10.3a1.6,1.6,0,0,1,1.594,1.594v10.3a1.6,1.6,0,0,1-1.594,1.594H3.353a1.6,1.6,0,0,1-1.594-1.594Z"/><path d="M14.262,5.521h3.476a.75.75,0,0,0,0-1.5H14.262a.75.75,0,0,0,0,1.5Z"/><path d="M6.766,20.512h3.477a.75.75,0,1,0,0-1.5H6.766a.75.75,0,1,0,0,1.5Z"/><path d="M21.757,20.512h3.477a.75.75,0,0,0,0-1.5H21.757a.75.75,0,0,0,0,1.5Z"/><text x="0" y="47" fill="#000000" font-size="5px" font-weight="bold" font-family="'Helvetica Neue', Helvetica, Arial-Unicode, Arial, Sans-serif">Created by Atif Arshad</text><text x="0" y="52" fill="#000000" font-size="5px" font-weight="bold" font-family="'Helvetica Neue', Helvetica, Arial-Unicode, Arial, Sans-serif">from the Noun Project</text></svg>